# xmcd
#
# Track frame offsets:
# 150
# 14076
# 29997
# 45538
# 59701
# 70989
# 86106
# 99032
# 112326
# 124970
# 142772
# 153594
# 167781
# 182024
#
# Disc length: 2615 seconds
#
#
# Revision: 0
# Processed by: cddbd v1.4PL0 Copyright (c) Steve Scherf et al.
# Submitted via: FreeRIP 2.35 
#
DISCID=cf0a350e
DTITLE=Truck Stop - Bitte recht freundlich
DYEAR=1900
DGENRE=
TTITLE0=ANGELN ENTSPANNT
TTITLE1=WEISST DU, WAS ICH KÖNTE
TTITLE2=10000 GEIGER
TTITLE3=ROSIE (Woll'n wir nochmal drüber reden?)
TTITLE4=CHIFFRE 107
TTITLE5=WOZU SOLL ICH WEINEN?
TTITLE6=TREIB DICH NICHT RUM
TTITLE7=HEUT' NACHT LÄSST MICH DER SCHNAPS IM STICH
TTITLE8=JANA
TTITLE9=MUTTER
TTITLE10=OSNABRÜCK HIN UND ZURÜCK
TTITLE11=ER MUSS GEHN
TTITLE12=HEY, HAST SCHON RECHT
TTITLE13=1:100000
EXTD=
EXTT0=
EXTT1=
EXTT2=
EXTT3=
EXTT4=
EXTT5=
EXTT6=
EXTT7=
EXTT8=
EXTT9=
EXTT10=
EXTT11=
EXTT12=
EXTT13=
PLAYORDER=
